<svg version="1.1" id="Layer_1" xmlns="http://www.w3.org/2000/svg" xmlns:xlink="http://www.w3.org/1999/xlink" x="0px" y="0px"
	 viewBox="0 0 512 512" style="enable-background:new 0 0 512 512;" xml:space="preserve">
<path style="fill:#28749E;" d="M512,122.435v278.261c0,24.588-19.933,44.522-44.522,44.522H256H44.522
	C19.933,445.217,0,425.284,0,400.696V122.435c0-24.588,19.933-44.522,44.522-44.522H256h211.478
	C492.066,77.913,512,97.847,512,122.435z"/>
<path style="fill:#183244;" d="M256,489.739L256,489.739c-18.442,0-33.391-14.949-33.391-33.391V111.304
	c0-18.442,14.949-33.391,33.391-33.391l0,0c18.442,0,33.391,14.949,33.391,33.391v345.043
	C289.391,474.79,274.442,489.739,256,489.739z"/>
<path style="fill:#2C4D67;" d="M512,122.435v278.261c0,24.588-19.933,44.522-44.522,44.522h-244.87V77.913h244.87
	C492.066,77.913,512,97.847,512,122.435z"/>
<path style="fill:#28749E;" d="M289.391,445.217H256V77.913h33.391V445.217z"/>
<path style="fill:#FFE52C;" d="M467.478,66.783v311.652c0,12.295-9.966,22.261-22.261,22.261H256H66.783
	c-12.295,0-22.261-9.966-22.261-22.261V66.783c0-12.295,9.966-22.261,22.261-22.261h166.957c12.295,0,22.261,9.966,22.261,22.261
	c0-12.295,9.966-22.261,22.261-22.261h166.957C457.512,44.522,467.478,54.488,467.478,66.783z"/>
<path style="fill:#FFC02C;" d="M467.478,66.783v311.652c0,12.295-9.966,22.261-22.261,22.261H256V66.783
	c0-12.295,9.966-22.261,22.261-22.261h166.957C457.512,44.522,467.478,54.488,467.478,66.783z"/>
<path style="fill:#FFE52C;" d="M292.174,222.609c0-4.61,3.738-8.348,8.348-8.348h122.435c4.61,0,8.348,3.738,8.348,8.348
	c0,4.61-3.738,8.348-8.348,8.348H300.522C295.911,230.957,292.174,227.219,292.174,222.609z M300.522,264.348h33.391
	c4.61,0,8.348-3.738,8.348-8.348s-3.738-8.348-8.348-8.348h-33.391c-4.61,0-8.348,3.738-8.348,8.348
	S295.911,264.348,300.522,264.348z M366.191,247.652c-4.61,0-8.348,3.738-8.348,8.348s3.738,8.348,8.348,8.348h1.113
	c4.61,0,8.348-3.738,8.348-8.348s-3.738-8.348-8.348-8.348H366.191z M422.957,281.043H300.522c-4.61,0-8.348,3.738-8.348,8.348
	s3.738,8.348,8.348,8.348h122.435c4.61,0,8.348-3.738,8.348-8.348S427.567,281.043,422.957,281.043z M364.522,322.783
	c0-4.61-3.738-8.348-8.348-8.348h-55.652c-4.61,0-8.348,3.738-8.348,8.348s3.738,8.348,8.348,8.348h55.652
	C360.784,331.13,364.522,327.393,364.522,322.783z M422.957,314.435h-33.391c-4.61,0-8.348,3.738-8.348,8.348
	s3.738,8.348,8.348,8.348h33.391c4.61,0,8.348-3.738,8.348-8.348S427.567,314.435,422.957,314.435z M333.913,347.826h-33.391
	c-4.61,0-8.348,3.738-8.348,8.348s3.738,8.348,8.348,8.348h33.391c4.61,0,8.348-3.738,8.348-8.348S338.523,347.826,333.913,347.826z
	 M367.304,347.826h-1.113c-4.61,0-8.348,3.738-8.348,8.348s3.738,8.348,8.348,8.348h1.113c4.61,0,8.348-3.738,8.348-8.348
	S371.915,347.826,367.304,347.826z"/>
<path style="fill:#FFC02C;" d="M80.696,89.043c0-4.61,3.738-8.348,8.348-8.348h122.435c4.61,0,8.348,3.738,8.348,8.348
	c0,4.61-3.738,8.348-8.348,8.348H89.043C84.433,97.391,80.696,93.654,80.696,89.043z M89.043,130.783h33.391
	c4.61,0,8.348-3.738,8.348-8.348s-3.738-8.348-8.348-8.348H89.043c-4.61,0-8.348,3.738-8.348,8.348S84.433,130.783,89.043,130.783z
	 M154.713,114.087c-4.61,0-8.348,3.738-8.348,8.348s3.738,8.348,8.348,8.348h1.113c4.61,0,8.348-3.738,8.348-8.348
	s-3.738-8.348-8.348-8.348H154.713z M211.478,147.478H89.043c-4.61,0-8.348,3.738-8.348,8.348s3.738,8.348,8.348,8.348h122.435
	c4.61,0,8.348-3.738,8.348-8.348S216.088,147.478,211.478,147.478z M153.043,189.217c0-4.61-3.738-8.348-8.348-8.348H89.043
	c-4.61,0-8.348,3.738-8.348,8.348c0,4.61,3.738,8.348,8.348,8.348h55.652C149.306,197.565,153.043,193.828,153.043,189.217z
	 M211.478,180.87h-33.391c-4.61,0-8.348,3.738-8.348,8.348c0,4.61,3.738,8.348,8.348,8.348h33.391c4.61,0,8.348-3.738,8.348-8.348
	C219.826,184.607,216.088,180.87,211.478,180.87z M122.435,214.261H89.043c-4.61,0-8.348,3.738-8.348,8.348
	c0,4.61,3.738,8.348,8.348,8.348h33.391c4.61,0,8.348-3.738,8.348-8.348C130.783,217.998,127.045,214.261,122.435,214.261z
	 M155.826,214.261h-1.113c-4.61,0-8.348,3.738-8.348,8.348c0,4.61,3.738,8.348,8.348,8.348h1.113c4.61,0,8.348-3.738,8.348-8.348
	C164.174,217.998,160.436,214.261,155.826,214.261z"/>
<path style="fill:#CC0000;" d="M422.957,133.565l-66.783,22.261V33.391c0-6.147,4.983-11.13,11.13-11.13h44.522
	c6.147,0,11.13,4.983,11.13,11.13V133.565z"/>
<g>
</g>
<g>
</g>
<g>
</g>
<g>
</g>
<g>
</g>
<g>
</g>
<g>
</g>
<g>
</g>
<g>
</g>
<g>
</g>
<g>
</g>
<g>
</g>
<g>
</g>
<g>
</g>
<g>
</g>

<defs>
<linearGradient id="paint0_linear" x1="3.69867" y1="4.89825" x2="22.5688" y2="37.2522" gradientUnits="userSpaceOnUse">
<stop offset="0.259336" stop-color="#FFDB6E"/>
<stop offset="1" stop-color="#FFBC5E"/>
</linearGradient>
<linearGradient id="paint1_linear" x1="1.17724" y1="18.7359" x2="2.78931" y2="19.2346" gradientUnits="userSpaceOnUse">
<stop offset="0.259336" stop-color="#FFDB6E"/>
<stop offset="1" stop-color="#FFBC5E"/>
</linearGradient>
<linearGradient id="paint2_linear" x1="1.17724" y1="18.7359" x2="2.78931" y2="19.2346" gradientUnits="userSpaceOnUse">
<stop offset="0.259336" stop-color="#FFDB6E"/>
<stop offset="1" stop-color="#FFBC5E"/>
</linearGradient>
<linearGradient id="paint3_linear" x1="3.26667" y1="0.900025" x2="27.6816" y2="36.6089" gradientUnits="userSpaceOnUse">
<stop offset="0.259336" stop-color="#FFDB6E"/>
<stop offset="1" stop-color="#FFBC5E"/>
</linearGradient>
<linearGradient id="paint4_linear" x1="3.26667" y1="0.900025" x2="27.6816" y2="36.6089" gradientUnits="userSpaceOnUse">
<stop offset="0.259336" stop-color="#FFDB6E"/>
<stop offset="1" stop-color="#FFBC5E"/>
</linearGradient>
<linearGradient id="paint5_linear" x1="14.1208" y1="12.223" x2="27.511" y2="27.0155" gradientUnits="userSpaceOnUse">
<stop offset="0.259336" stop-color="#FFDB6E"/>
<stop offset="1" stop-color="#FFBC5E"/>
</linearGradient>
<linearGradient id="paint6_linear" x1="14.1208" y1="12.223" x2="27.511" y2="27.0155" gradientUnits="userSpaceOnUse">
<stop offset="0.259336" stop-color="#FFDB6E"/>
<stop offset="1" stop-color="#FFBC5E"/>
</linearGradient>
<linearGradient id="paint7_linear" x1="16.2288" y1="14.5995" x2="25.5157" y2="24.8592" gradientUnits="userSpaceOnUse">
<stop offset="0.259336" stop-color="#FFDB6E"/>
<stop offset="1" stop-color="#FFBC5E"/>
</linearGradient>
<linearGradient id="paint8_linear" x1="16.2288" y1="14.5995" x2="25.5157" y2="24.8592" gradientUnits="userSpaceOnUse">
<stop offset="0.259336" stop-color="#FFDB6E"/>
<stop offset="1" stop-color="#FFBC5E"/>
</linearGradient>
</defs>

</svg>
